Coordinates
version=1
nRows=13
nColumns=36
inDegrees=yes

Units are S.I. units (second, meters, Newtons, ...)
If the header above contains a line with 'inDegrees', this indicates whether rotational values are in degrees (yes) or radians (no).

endheader
time	pelvis_tilt	pelvis_list	pelvis_rotation	pelvis_tx	pelvis_ty	pelvis_tz	hip_flexion_r	hip_adduction_r	hip_rotation_r	knee_angle_r	knee_angle_r_beta	ankle_angle_r	subtalar_angle_r	mtp_angle_r	hip_flexion_l	hip_adduction_l	hip_rotation_l	knee_angle_l	knee_angle_l_beta	ankle_angle_l	subtalar_angle_l	mtp_angle_l	lumbar_extension	lumbar_bending	lumbar_rotation	arm_flex_r	arm_add_r	arm_rot_r	elbow_flex_r	pro_sup_r	arm_flex_l	arm_add_l	arm_rot_l	elbow_flex_l	pro_sup_l
      2.98333330	     -3.33996399	     -0.64130754	      1.50728612	      0.25150973	      0.94224674	     -0.03090452	      0.03939732	     -1.40010263	     -9.84571956	      0.22770002	      0.00397412	      5.10274221	      1.84227603	     -7.50000480	      0.01400009	     -6.05346441	      0.39241878	      0.29520075	      0.00515223	      9.30025920	      4.72359819	     -7.50000480	     -1.33868366	      1.18629358	      0.99490100	      2.80217107	     -7.13351108	     23.28614057	     33.13048165	     76.96161392	      3.94516843	     -8.28259528	     28.83612562	     31.32103094	     82.37152492
      3.00000000	     -3.22523642	     -0.72023334	      1.49048265	      0.25160946	      0.94246871	     -0.03068826	     -0.14717102	     -1.30301281	    -10.11309829	      0.22927557	      0.00400161	      5.10277198	      2.01606579	     -7.50000436	     -0.12122471	     -6.15441846	      0.33718973	      0.28599408	      0.00499154	      9.36719025	      4.94046147	     -7.50000436	     -1.59594707	      1.28109395	      1.02284008	      3.02231213	     -6.93173145	     23.15970907	     32.07413363	     76.14781553	      4.06102967	     -8.21760624	     28.93592440	     30.61122583	     81.65784298
      3.01666670	     -3.17648365	     -0.80907951	      1.49199765	      0.25158676	      0.94497888	     -0.03109986	     -0.24980719	     -1.21197586	    -10.33926636	      0.23187046	      0.00404690	      5.02975825	      2.14420072	     -7.50000261	     -0.17248995	     -6.24952358	      0.39741452	      0.27792524	      0.00485071	      9.33929829	      4.89371926	     -7.50000261	     -1.81207322	      1.39366824	      1.14801849	      3.12027870	     -6.76647575	     22.46312963	     31.20061581	     78.03818703	      4.26317274	     -8.11992039	     28.75629938	     29.85791370	     86.02739551
      3.03333330	     -3.06452038	     -0.86178750	      1.47453507	      0.25169991	      0.94474169	     -0.03088358	     -0.34824183	     -1.15226300	    -10.46939095	      0.22699801	      0.00396186	      5.04976787	      2.24716778	     -7.50000239	     -0.27165235	     -6.31102803	      0.37859907	      0.27005296	      0.00471331	      9.38429451	      5.08677545	     -7.50000239	     -2.15347890	      1.47769534	      1.14779687	      3.32470429	     -6.58615042	     22.32652336	     30.35887315	     76.85871263	      4.25164746	     -8.05931995	     28.64682113	     29.39751353	     84.53649951
      3.05000000	     -3.10136478	     -0.92766733	      1.50489017	      0.25148574	      0.94485784	     -0.03130463	     -0.32265748	     -1.09730096	    -10.45454345	      0.22686862	      0.00395960	      4.92014925	      2.21629553	     -7.50000212	     -0.20958331	     -6.37863699	      0.45456988	      0.26756482	      0.00466989	      9.31584429	      5.04076139	     -7.50000212	     -2.19938330	      1.56300958	      1.08510917	      3.57660673	     -6.35495039	     22.29376558	     29.22151288	     75.75378203	      4.27965957	     -7.93057192	     28.77633580	     28.59092927	     82.99102316
      3.06666670	     -3.09463829	     -0.97134847	      1.52317538	      0.25737044	      0.94597591	     -0.03381054	     -0.45122792	     -1.12069588	    -10.42000369	      0.23067307	      0.00402600	      4.89697906	      2.29461857	     -7.50000212	     -0.32268280	     -6.39603523	      0.48998891	      0.26152310	      0.00456444	      9.30548333	      5.10170002	     -7.50000212	     -2.26048148	      1.67139084	      1.08817313	      3.37226264	     -6.40516157	     22.30221898	     29.00436521	     75.77203040	      4.01345970	     -7.89284324	     28.83810648	     28.44832317	     83.02382105
      3.08333330	     -2.88669045	     -1.04729538	      1.47123693	      0.25701811	      0.94612728	     -0.03412492	     -0.74561379	     -1.08264362	    -10.60224469	      0.22769709	      0.00397406	      5.03625267	      2.64917124	     -7.50000178	     -0.65853326	     -6.42871778	      0.31646951	      0.25137806	      0.00438737	      9.49111052	      5.32494321	     -7.50000178	     -2.47552860	      1.84212899	      1.00967822	      3.72935325	     -6.12724689	     22.15684744	     27.64575143	     75.00731881	      3.98989105	     -7.68195513	     29.03845969	     27.45596939	     81.87499380
      3.10000000	     -2.96839009	     -1.11549996	      1.52739606	      0.25717117	      0.94562559	     -0.03399002	     -0.73295384	     -1.05079421	    -10.62743654	      0.22146258	      0.00386525	      4.88082248	      2.53443294	     -7.50000145	     -0.64816842	     -6.44966363	      0.43924214	      0.24367014	      0.00425285	      9.47553656	      5.30183125	     -7.50000145	     -2.34649699	      1.97477462	      0.86667637	      3.68000349	     -6.02542303	     22.03601274	     27.15238874	     73.69023069	      3.74948355	     -7.62045265	     29.22919553	     27.13039384	     79.98424398
      3.11666670	     -2.94082462	     -1.07454401	      1.47330122	      0.26223931	      0.94512012	     -0.03686342	     -0.88703065	     -1.16579190	    -10.51474731	      0.21765198	      0.00379874	      5.08827475	      2.65659027	     -7.50000145	     -0.84377617	     -6.33543780	      0.42633308	      0.23657387	      0.00412899	      9.68338172	      5.30140822	     -7.50000145	     -2.28440375	      2.00691696	      0.84562846	      3.51993076	     -6.07633057	     22.04312830	     26.94789356	     73.73263533	      3.46826590	     -7.58009047	     29.31928917	     26.93531395	     80.04293829
      3.13333330	     -2.71366072	     -1.10028422	      1.38577667	      0.26207278	      0.94298140	     -0.03643075	     -1.21931437	     -1.18093239	    -10.56983240	      0.21735277	      0.00379352	      5.39423584	      3.02933015	     -7.50000110	     -1.24436759	     -6.31177351	      0.11531844	      0.22834344	      0.00398534	     10.13050799	      5.66038906	     -7.50000110	     -2.43641905	      2.09424741	      0.72721278	      3.84052021	     -5.77061323	     21.92869309	     25.71687184	     72.49081523	      3.60438406	     -7.37667776	     29.76930514	     25.81904179	     78.18837925
      3.15000000	     -2.69770116	     -1.12618709	      1.38236905	      0.26177700	      0.94339516	     -0.03661870	     -1.31035490	     -1.20001120	    -10.76867336	      0.21406145	      0.00373608	      5.54013916	      3.34320371	     -7.50000092	     -1.36544106	     -6.28324906	      0.15522302	      0.22122674	      0.00386113	     10.35159346	      5.63853059	     -7.50000092	     -2.35877985	      2.19816358	      0.59828653	      3.87708051	     -5.71484235	     21.94361405	     25.23650432	     72.21110716	      3.57939990	     -7.31130636	     30.24903002	     25.31944405	     77.64513434
      3.16666670	     -2.52961825	     -1.12907693	      1.42212445	      0.27332106	      0.94886166	     -0.03657501	     -1.76819266	     -1.22165584	    -11.02209438	      0.20673828	      0.00360826	      5.51206320	      3.68234810	     -7.50000080	     -1.78554635	     -6.28831081	     -0.00518851	      0.20918987	      0.00365105	     10.47458349	      6.04974048	     -7.50000080	     -2.19577129	      2.25548051	      0.47188685	      3.53630735	     -5.61734249	     21.83578310	     24.78769331	     71.90414635	      3.21537480	     -7.29390597	     30.63478820	     24.99059198	     77.07110151
      3.18333330	     -2.66851593	     -1.17280096	      1.37697133	      0.26738504	      0.94666204	     -0.03908248	     -1.75331927	     -1.26445373	    -11.31756222	      0.20664441	      0.00360663	      5.63349929	      3.93458158	     -7.50000037	     -1.77401713	     -6.26210073	      0.00129839	      0.20081119	      0.00350482	     10.64291517	      5.92856724	     -7.50000037	     -1.84009230	      2.40527460	      0.59068076	      3.16844312	     -5.48744056	     19.87175950	     24.41225910	     77.42401636	      3.21639077	     -7.16658671	     30.96721336	     24.37853511	     81.75851660
